<svg width="1380" height="642" xmlns="http://www.w3.org/2000/svg"><g fill="#FFF" fill-rule="nonzero"><path d="M1059 .219c-140.394 0-259.698 90.262-303.094 215.906h18.813v125.781c0 13.99 2.058 24.391 6.187 31.25 4.13 6.86 10.85 10.282 20.125 10.281 9.149 0 15.807-3.286 20-9.875 4.257-6.588 6.375-17.125 6.375-31.656V216.125h36.782V344.75c0 24.91-5.327 43.983-16 57.25-10.674 13.267-26.382 19.906-47.157 19.906-20.775 0-36.514-6.639-47.187-19.906-3.316-4.146-6.127-8.85-8.407-14.125C776.268 532.742 904.94 641.438 1059 641.438c143.572 0 265.103-94.37 305.938-224.47l-9.157-37.906h-52.593l-9.813 40.75H1256.5l52.406-201.593h42.125l28.5 109.594c.05-2.315.063-4.643.063-6.97C1379.594 143.785 1236.06.22 1059 .22zm-173.063 218h43.72l51.75 115.469v-115.47h33.562v201.595h-35.282L919.47 281.438v138.375h-33.532V218.219zm148.657 0h101.687v39H1071v37.5h60.5v38.969H1071v86.125h-36.406V218.219zm116.125 0h60.25c9.021 0 16.618 1.119 22.781 3.375a46.337 46.337 0 0116.469 9.906c5.717 5.325 10.076 12.134 13.062 20.438 3.05 8.303 4.563 18.263 4.563 29.906 0 9.025-1.09 17.867-3.313 26.531-2.224 8.574-5.401 15.79-9.531 21.656-5.655 7.942-11.98 13.97-18.969 18.031-6.925 4.062-15.582 6.094-25.937 6.094h-22.75v65.656h-36.625V218.22zm36.625 37.625v60.406h10.468c6.227 0 11.341-.542 15.344-1.625 4.066-1.083 7.456-3.25 10.188-6.5 2.35-2.888 4.046-6.341 5.062-10.313 1.08-4.06 1.625-8.973 1.625-14.75 0-5.685-1.09-10.563-3.25-14.625-2.16-4.15-4.672-7.031-7.531-8.656-3.812-2.166-7.535-3.35-11.156-3.531-3.622-.27-8.433-.406-14.469-.406h-6.281zm142.156 13.969l-17.438 72.28h34.876l-17.438-72.28z"/><g transform="translate(449.432 210.243)"><path d="M166.454 216.35c-1.506 1.72-3.455 3.328-5.292 4.81-11.869-12.265-25.803-25.86-39.048-25.86-8.211 0-14.126 6.251-21.025 10.661-9.576 6.12-22.71 9.568-33.966 5.076-6.054-2.299-11.92-5.685-16.303-11.185 8.86 6.11 22.126 6.93 32.127 2.782 11.054-4.587 22.306-10.676 34.904-10.676 18.571 0 36.221 12.562 48.603 24.391zM29.196 177.77c12.296 13.997 32.35 9.494 48.764 12.99 2.284.486 4.43 1.245 6.883.868-1.951-1.237-4.538-1.377-6.792-2.226-12.736-4.798-14.721-18.428-21.691-27.809 8.902 5.919 16.277 14.021 24.602 21.635 5.794 5.3 13.012 7.567 20.499 9.09-1.8.658-4.153.503-6.09.984-13.447 3.335-28.356 8.601-42.665 3.88-9.234-3.048-18.843-10.265-23.51-19.412zM9.487 145.376c7.67 17.364 26.94 18.724 39.751 29.377 2.436 2.025 4.851 3.89 7.528 5.138l.138-.14c-2.957-2.675-6.156-5.863-8.446-9.19-7.323-10.64-4.886-25.184-10.532-36.465 5.13 6.142 9.94 12.467 12.895 19.5 4.753 11.317 6.368 24.228 17.029 32.827-11.539-3.806-24.85-3.049-35.24-9.854-10.92-7.153-21.042-18.444-23.123-31.193zm-8.215-35.13c1.109 15.298 17.396 23.47 25.162 36.046 1.66 2.686 3.366 5.459 5.775 7.628-.376-1.63-1.716-3.072-2.454-4.67-2.49-5.396-3.618-11.64-2.996-18.062.756-7.812 4.013-15.066 2.763-23.285 6.694 14.45 4.535 32.513 8.404 48.136.856 3.456 2.96 6.48 4.257 9.754-6.577-5.004-15.196-9.445-22.416-15.135-6.982-5.504-13.042-11.954-16.192-20.347-2.27-6.048-2.86-13.262-2.303-20.066zm.455-28.188c.785-3.415 1.386-6.949 2.872-10.08-2.813 14.43 6.788 24.855 10.066 37.341 1.235 4.705 1.658 9.705 3.56 14.095.178.095.332-.09.442-.231-4.737-13.288 2.207-25.569 8.97-36.043 1.779-2.753 2.635-5.958 3.465-9.2.731 6.016-.549 12.98-1.662 19.186-1.432 7.992-4.164 15.482-6.335 23.192-1.429 4.817-1.052 10.253-.319 15.3l-.69-.55c-5.036-9.298-14.972-16.56-17.972-26.708-2.399-8.11-4.058-17.48-2.397-26.302zm5.311-15.525c0-10.92 4.253-19.83 10.631-27.963.185-.092.317-.278.556-.234-7.022 10.681-.63 24.164-1.533 36.28l-.926 12.434c.137.09.137.464.464.32.414-1.386.54-2.86.782-4.292C18.702 73.054 27.505 66.077 34.97 59a15.947 15.947 0 003.891-5.781c-.62 4.993-2.014 10.112-4.255 14.65-5.746 11.632-16.844 21.023-18.84 34.243-.968-12.67-8.728-22.089-8.728-35.579zm18.51-36.84c3.53-3.914 7.488-6.964 12.2-8.17-9.15 6.29-8.652 17.534-11.454 26.934-1.024 3.437-2.529 6.658-3.33 10.21l.232.185c1.522-4.016 4.134-7.876 7.536-11.087 6.435-6.07 16.11-9.745 19.294-18.626-.146 12.34-10.665 21.722-20.273 28.98-4.31 3.254-7.971 7.625-10.206 12.206.373-3.41.543-6.246.238-9.575-.986-10.78-1.625-22.865 5.763-31.056zM62.68 8.947c-6.79 5.958-11.32 13.626-16.536 20.52-4.338 5.733-10.291 9.286-15.41 14.097 2.763-5.733 3.273-12.302 6.783-17.849 6-9.484 15.919-13.165 25.163-16.768z"/><path d="M96.275 216.35c1.506 1.72 3.455 3.328 5.292 4.81 11.869-12.265 25.803-25.86 39.048-25.86 8.211 0 14.125 6.251 21.025 10.661 9.576 6.12 22.71 9.568 33.966 5.076 6.054-2.299 11.92-5.685 16.303-11.185-8.86 6.11-22.126 6.93-32.127 2.782-11.054-4.587-22.306-10.676-34.904-10.676-18.571 0-36.221 12.562-48.603 24.391zm137.257-38.58c-12.295 13.997-32.35 9.494-48.763 12.99-2.285.486-4.431 1.245-6.883.868 1.951-1.237 4.538-1.377 6.792-2.226 12.735-4.798 14.721-18.428 21.69-27.809-8.901 5.919-16.277 14.021-24.601 21.635-5.794 5.3-13.013 7.567-20.499 9.09 1.8.658 4.152.503 6.09.984 13.447 3.335 28.356 8.601 42.665 3.88 9.234-3.048 18.843-10.265 23.51-19.412zm19.71-32.394c-7.67 17.364-26.94 18.724-39.751 29.377-2.437 2.025-4.852 3.89-7.528 5.138l-.138-.14c2.957-2.675 6.156-5.863 8.446-9.19 7.323-10.64 4.886-25.184 10.532-36.465-5.13 6.142-9.941 12.467-12.895 19.5-4.753 11.317-6.368 24.228-17.029 32.827 11.539-3.806 24.849-3.049 35.239-9.854 10.921-7.153 21.043-18.444 23.124-31.193zm8.215-35.13c-1.109 15.298-17.396 23.47-25.163 36.046-1.658 2.686-3.365 5.459-5.774 7.628.376-1.63 1.716-3.072 2.453-4.67 2.491-5.396 3.619-11.64 2.997-18.062-.756-7.812-4.013-15.066-2.763-23.285-6.694 14.45-4.535 32.513-8.404 48.136-.856 3.456-2.96 6.48-4.257 9.754 6.577-5.004 15.196-9.445 22.416-15.135 6.982-5.504 13.042-11.954 16.192-20.347 2.27-6.048 2.86-13.262 2.303-20.066zm-.455-28.188c-.786-3.415-1.387-6.949-2.872-10.08 2.812 14.43-6.788 24.855-10.066 37.341-1.236 4.705-1.658 9.705-3.56 14.095-.178.095-.332-.09-.442-.231 4.737-13.288-2.207-25.569-8.971-36.043-1.778-2.753-2.634-5.958-3.464-9.2-.731 6.016.549 12.98 1.662 19.186 1.432 7.992 4.164 15.482 6.335 23.192 1.429 4.817 1.052 10.253.319 15.3l.689-.55c5.036-9.298 14.972-16.56 17.973-26.708 2.398-8.11 4.057-17.48 2.397-26.302zm-5.312-15.525c0-10.92-4.252-19.83-10.63-27.963-.186-.092-.317-.278-.556-.234 7.022 10.681.63 24.164 1.533 36.28l.926 12.434c-.138.09-.138.464-.464.32-.415-1.386-.54-2.86-.782-4.292-1.69-10.024-10.493-17.001-17.958-24.078a15.947 15.947 0 01-3.891-5.781c.62 4.993 2.014 10.112 4.255 14.65 5.746 11.632 16.844 21.023 18.84 34.243.968-12.67 8.727-22.089 8.727-35.579zm-18.509-36.84c-3.53-3.914-7.488-6.964-12.2-8.17 9.149 6.29 8.652 17.534 11.453 26.934 1.024 3.437 2.53 6.658 3.33 10.21l-.232.185c-1.522-4.016-4.133-7.876-7.536-11.087-6.435-6.07-16.109-9.745-19.293-18.626.146 12.34 10.665 21.722 20.273 28.98 4.309 3.254 7.971 7.625 10.206 12.206-.374-3.41-.543-6.246-.239-9.575.986-10.78 1.626-22.865-5.762-31.056zM200.048 8.947c6.79 5.958 11.32 13.626 16.536 20.52 4.338 5.733 10.29 9.286 15.41 14.097-2.763-5.733-3.274-12.302-6.783-17.849-6-9.484-15.919-13.165-25.163-16.768zM214.294 132.304l-2.006-1.095a90.28 90.28 0 01-16.616 23.65l-11.716-11.716c5.74-5.914 10.367-12.628 13.777-19.884l-1.997-1.091a71.305 71.305 0 01-13.373 19.382l-10.613-10.614a55.936 55.936 0 0010.78-15.98l-1.98-1.082a53.966 53.966 0 01-10.388 15.477l-11.73-11.728a37.045 37.045 0 007.495-11.738l-1.982-1.08a35.05 35.05 0 01-7.09 11.238l-10.646-10.644a19.754 19.754 0 005.04-12.167h15.069a34.736 34.736 0 01-2.372 11.573l1.98 1.08a37.1 37.1 0 002.61-12.653h16.61a53.452 53.452 0 01-4.597 20.643l1.981 1.08a55.826 55.826 0 004.837-21.724h15.04a70.587 70.587 0 01-6.672 28.937l1.997 1.091c4.367-9.293 6.74-19.478 6.897-30.028h16.61a89.317 89.317 0 01-8.952 37.978l2.007 1.094c6.005-12.369 9.193-26.028 9.193-40.182 0-12.037-2.306-23.715-6.688-34.548l-2.058.885c4.127 10.222 6.364 21.216 6.501 32.552H204.63a73.144 73.144 0 00-5.162-25.988l-2.043.876a70.873 70.873 0 014.985 25.112h-15.042a55.912 55.912 0 00-3.771-19.168l-2.043.878a53.71 53.71 0 013.596 18.29h-16.613a37.145 37.145 0 00-2.25-11.729l-2.043.877a34.9 34.9 0 012.075 10.852H151.25a19.752 19.752 0 00-5.04-12.166l10.655-10.655c3.291 3.5 5.78 7.564 7.379 11.97l2.042-.877a37.02 37.02 0 00-7.853-12.662l11.747-11.745a53.53 53.53 0 0111.374 17.845l2.042-.878a55.788 55.788 0 00-11.846-18.537l10.635-10.637c6.587 6.793 11.647 14.675 15.039 23.23l2.043-.875A73.065 73.065 0 00183.956 41.1l11.745-11.747c8.306 8.51 14.713 18.383 19.04 29.105l2.058-.885c-4.572-11.313-11.407-21.704-20.295-30.592-8.921-8.922-19.358-15.772-30.72-20.345l-.82 2.083c10.746 4.329 20.642 10.743 29.166 19.065L182.386 39.53c-6.876-6.663-14.842-11.828-23.49-15.327l-.81 2.065c8.362 3.393 16.07 8.388 22.73 14.85l-10.634 10.635a55.862 55.862 0 00-17.595-11.48l-.812 2.065a53.642 53.642 0 0116.837 10.985l-11.744 11.745a37.115 37.115 0 00-11.163-7.263l-.813 2.068a34.86 34.86 0 0110.406 6.765l-10.654 10.655a19.75 19.75 0 00-12.17-5.04V57.187a34.811 34.811 0 0112.418 2.687l.813-2.067a37.085 37.085 0 00-13.23-2.84V38.353a53.645 53.645 0 0119.301 3.985l.812-2.066a55.859 55.859 0 00-20.113-4.138V21.087a70.917 70.917 0 0125.61 5.176l.811-2.066c-8.3-3.362-17.219-5.193-26.422-5.33V2.256c11.314.137 22.288 2.367 32.492 6.475l.818-2.083C154.988 2.3 143.354.009 131.366.009A91.535 91.535 0 0090.15 9.78l1.013 1.937c12.008-6.017 25.294-9.295 39.092-9.461v16.613a72.782 72.782 0 00-31.37 7.607l1.01 1.932c9.342-4.625 19.655-7.158 30.36-7.321v15.042a55.654 55.654 0 00-23.372 5.635l1.015 1.941a53.543 53.543 0 0122.357-5.358V54.96a36.966 36.966 0 00-14.643 3.49l1.02 1.948a34.804 34.804 0 0113.623-3.22v15.07c-2.337.13-4.567.664-6.622 1.53l1.019 1.948a17.681 17.681 0 016.713-1.314c4.733 0 9.182 1.843 12.53 5.19a17.606 17.606 0 015.189 12.53c0 9.771-7.947 17.722-17.72 17.722a17.605 17.605 0 01-12.53-5.19 17.61 17.61 0 01-5.19-12.532c0-4.733 1.843-9.184 5.19-12.53a17.705 17.705 0 015.817-3.876l-1.018-1.947a19.918 19.918 0 00-5.54 3.513l-10.66-10.66a34.906 34.906 0 019.198-6.235l-1.02-1.949a37.309 37.309 0 00-9.738 6.626L94.118 53.315a53.813 53.813 0 0113.78-9.611l-1.014-1.941a56.256 56.256 0 00-14.317 10L81.913 41.11a71.04 71.04 0 0117.981-12.703l-1.008-1.933a73.618 73.618 0 00-18.52 13.09l-11.77-11.77a89.971 89.971 0 0122.566-16.078L90.15 9.78c-17.936 9.014-32.54 23.703-41.431 41.71l1.93 1.042a89.975 89.975 0 0116.379-23.168l11.77 11.77A73.524 73.524 0 0065.303 60.45l1.923 1.038A71.093 71.093 0 0180.342 42.68l10.655 10.654A56.212 56.212 0 0080.515 68.67l1.927 1.04A53.689 53.689 0 0192.55 54.885l11.756 11.757a37.3 37.3 0 00-7.19 10.997l1.943 1.05a34.848 34.848 0 016.804-10.49l10.661 10.66a19.834 19.834 0 00-5.043 12.161H96.408a34.888 34.888 0 012.65-12.33l-1.943-1.051a36.976 36.976 0 00-2.926 13.38H77.58a53.545 53.545 0 014.863-21.31l-1.927-1.04a55.64 55.64 0 00-5.153 22.351H60.318c.158-10.388 2.54-20.41 6.908-29.533l-1.923-1.038a72.793 72.793 0 00-7.201 30.571H41.488c.163-13.567 3.333-26.64 9.16-38.49l-1.93-1.041a91.55 91.55 0 00-9.476 40.641c0 8.92 1.274 17.637 3.707 25.965l2.176-.548a90.169 90.169 0 01-3.637-24.306h16.61a73.437 73.437 0 003.143 20.249l2.154-.543a71.208 71.208 0 01-3.078-19.706H75.36a56.172 56.172 0 002.656 16.022l2.158-.544A53.86 53.86 0 0177.58 93.24h16.61a37.206 37.206 0 002.138 11.41l2.16-.545a34.99 34.99 0 01-2.079-10.865h15.07a19.751 19.751 0 005.04 12.167l-10.656 10.656a34.831 34.831 0 01-7.376-11.958l-2.159.545a37.005 37.005 0 007.966 12.981l-11.745 11.746a53.54 53.54 0 01-12.37-20.655l-2.158.544c2.572 8.042 6.956 15.44 12.964 21.684l-10.637 10.638c-7.955-8.203-13.7-17.988-16.946-28.64l-2.155.544c3.346 11.033 9.29 21.173 17.53 29.664l-11.744 11.746c-10.396-10.651-17.82-23.435-21.902-37.352l-2.176.548c4.282 14.651 12.18 28.082 23.276 39.175 7.513 7.515 16.101 13.564 25.411 18.021l1.103-1.955A89.868 89.868 0 0168.6 156.47l11.745-11.744a73.287 73.287 0 0020.59 14.091l1.097-1.944a71.05 71.05 0 01-20.116-13.716l10.636-10.637a55.87 55.87 0 0016.907 11.19l1.095-1.941a53.666 53.666 0 01-16.43-10.811l11.747-11.746a36.999 36.999 0 0012.931 7.949l1.11-1.966a34.817 34.817 0 01-12.47-7.552l10.654-10.656a19.734 19.734 0 0012.167 5.041v15.07a34.965 34.965 0 01-10.35-1.902l-1.11 1.965a37.12 37.12 0 0011.46 2.156v16.61a53.613 53.613 0 01-19.704-4.15l-1.095 1.94a55.817 55.817 0 0020.799 4.43v15.042c-9.898-.153-19.457-2.328-28.226-6.308l-1.096 1.944c9.103 4.16 19.037 6.43 29.322 6.583v16.61c-13.193-.16-25.926-3.15-37.515-8.67l-1.102 1.954c12.247 5.863 25.747 8.962 39.727 8.962 14.665 0 28.794-3.427 41.51-9.86l-1.05-2.038a89.294 89.294 0 01-39.351 9.651v-16.61c11.213-.165 22.006-2.853 31.759-7.758l-1.037-2.01a70.562 70.562 0 01-30.722 7.548v-15.042c8.413-.162 16.51-2.18 23.845-5.84l-1.03-2a53.429 53.429 0 01-22.815 5.62v-16.61a36.972 36.972 0 0015.21-3.743l-1.023-1.989a34.772 34.772 0 01-14.188 3.513v-15.068a19.747 19.747 0 0012.17-5.041l10.643 10.645a35.133 35.133 0 01-8.625 5.952l1.023 1.988a37.226 37.226 0 009.183-6.36l11.726 11.728a53.925 53.925 0 01-13.305 9.366l1.03 2a56.048 56.048 0 0013.863-9.778l10.613 10.612a71.28 71.28 0 01-17.598 12.5l1.037 2.01a73.279 73.279 0 0018.154-12.916l11.716 11.716a90.248 90.248 0 01-22.277 15.916l1.05 2.037a92.31 92.31 0 0023.63-17.122 92.195 92.195 0 0017.79-24.957l-.011-.021z"/><path d="M136.638 70.8l-.556.023.026.667.56-.027z"/><path d="M135.266 69.914h1v1h-1zM133.927 69.716l.653.098.078-.56-.652-.093zM133.378 69.525l-.99-.14.138-.99.99.14zM128.022 68.779h1v1h-1zM126.403 69.907l.648.094.08-.56-.649-.094z"/><path d="M126.47 70.759l-.97-.24.24-.97.97.24z"/><path d="M125.14 71.457l-.162-.987.987-.161.161.987zM51.914 128.852v-.471h-.464v.942h.744v1.227h.56l-.096-1.413zM59.258 136.586l-.372.658-1.02-.943-.745-1.035-.372-.85-.653-1.697 1.393.658.468 1.32.649.475zM78.12 162.52l-.092-.849-.744-1.133 1.117.191 1.204 1.036.468 1.226-.652.378-.372-.564zM128.486 76.89h-1.022l-.186-2.074.557-.379V73.4h-3.252l-.093-1.036.466-.283-.745-.284-.558.754-.184.85-.93.188v.471h-.65v1.226l-2.602 2.169-5.204-.188c-.373.849-1.302-.095-1.302-.095-.185-.565-1.485 0-1.485 0 0 1.039-1.766-.47-1.766-.47l-3.253-2.36c-1.858-1.697-4.645.473-4.738.944.093 1.32-2.137.283-2.137.283s-1.858-.565-2.138.19c-.278.753-1.488.566-1.488.566l-.186.377-.93.188-.184.565-1.116.19 2.787-.095c.744-.094-.28 1.604-.742 1.51l-1.3.094-.466.47H92.43l-.557.757-1.765-.095s-1.023.848-.929 1.131c.093.283-.186 1.132-.465 1.132-.28 0-.837.849-.65 1.131.186.283-.558 1.227-.558 1.227l-.185.944-.557.187v2.547l-1.116.755v1.13l-1.674 1.793.187 1.508-1.393 1.51.185 1.508-.836.283-.185.66-.372 1.98.93.096c.463-.19.37 1.226 0 1.413-.374.19-1.396.566-.837.943.558.378-1.488.283-1.488-.283 0-.564-1.115-1.037-1.393-.848-.279.188-.744-.848-.744-.848-1.022-1.037-4.182.093-4.182.093l-.465 1.51c-1.021.189-1.672 1.886-1.672 1.886-.836.283-1.486 1.32-1.207 1.603.278.283-.466.377-.466.377v2.075l-.464.66.092 2.263c.558 0 .466 1.038.466 1.038-.93.094-.745 1.32-.745 1.32l-1.95.66-.372.566-2.416-.095-.65.661-.652-.66H58.7l-.185-.472-.93-.19-.093-1.036-1.393.094-.279.565-1.487.094c.093.944-1.487 2.359-1.672 1.982-.188-.377-1.21-1.416-.744-1.603.465-.19 1.674-.379 1.674-.379v-.66l-3.44-.093-.37.566-1.396.093v1.51l-.649.189c-.466.281.092 1.32.092 1.32.65.66-.092 1.696-.092 1.696-.558.567.463 1.605.463 1.605.745.187-.463.754-.463.754.184.942.743 1.225.743 1.225-.559.943.373 1.414.373 1.414l.092 1.605.65.378v1.035l.372.66h1.486l-.092-2.357c-1.302-1.51 1.114-1.887 1.208-1.322.094.567 1.116.85 1.116.85.186 1.415 1.766 2.263 2.23.85.464-1.417.836-.567 1.115.092.279.661 2.042 2.265 2.042 2.265h1.395l.187 1.32c1.58-.094 2.043.097 2.693 2.263.652 2.168 2.416 2.735 2.416 2.735l1.302-.095c0-1.13 1.301.191 1.301.757 0 .564 2.509 2.733 2.509 2.733l2.508.565 2.326 1.889 1.764-.19h.744c.463-1.604 2.695.094 2.88.66.187.566 1.673 1.51 1.857 1.037.187-.47 1.209-.187 1.395 1.226.186 1.416.835 1.133.835 1.133l5.298-.095 1.858-1.605 4.74-.092c2.416-.095.929-3.396.465-3.396-.836-.66.278-3.394.278-3.394l-6.783-6.319c-1.58 0-.187-2.264-.187-2.264 1.208-.756-.279-1.98-.279-1.98.187-1.133-.65-2.453-.65-2.453-1.671-1.132-1.208-3.302-1.208-3.302v-1.509c-1.393-1.319.558-1.51.558-1.51.65-1.129-.466-1.978-.466-1.978l-.092-1.226-1.487-.19-.185-4.432-3.345-4.809c-.652-.19-.187-1.32-.187-1.32.837-.473-.187-1.603-.187-1.603l-.092-2.075 1.95-.19.466-.753h.929l-.093-2.453c.464-1.226 1.58-.566 1.58-.566l1.3.095.744-1.415.185-1.132-1.021-.093c-1.115-.661-.558-3.113-.558-3.113 1.766-2.641 3.809-1.132 3.809-1.132l1.302-.093c1.95 1.32.185 3.771.185 3.771-.372.567-.185 2.358-.185 2.358l.464 3.017-1.208 1.039c-1.022.566-1.022 1.885.094 2.168.743.094.464 1.886-.652.66-1.671 0 .931 1.51.187 1.13 1.674.85 1.3-.753 1.3-.753l2.232-1.792c.837-.66 2.324 1.415 2.324 1.698 0 .283 3.716.094 3.716.094 1.022.66 1.393 2.358 1.393 2.358 1.024-1.321 3.16-.096 1.58.66 1.486.943 1.486 1.791 1.486 1.791 1.21-.377 1.21.566 1.21.85 0 .282.371-1.415.371-1.415-1.394-1.038 1.858-1.415.93.471l-.558.85.93.754.091 2.17c2.045-.19 1.487-2.737 1.487-2.737l.93-.187c0-.85.65-.378.65-.378-.65-3.207 1.487-3.772 1.487-3.772 1.208-.283 1.3-2.83 1.3-2.83-.835-.377-.372-1.697.558-.565.928 1.13-.558-2.265-.558-2.265l-.743-.66-1.021-.093-.094-1.038h-1.671l-.28 1.321-.65.189-.187-.378-.278 1.037h-1.672l-.093-1.131 1.022-.283.372-.566.278-1.51h1.209l1.579-.47c.092-1.604.93-1.226.93-1.226l.556.471.837.66.093.565-.558.283-.092.756.279 1.036h.742c.279-1.508 2.232-1.508 2.789-.565l.558-1.32c-1.301-.66-.024-1.699.347-1.227s1.232-1.226 1.232-1.226.65.85 0-.283c-.65-1.132.464-1.697.464-1.697-.185-1.131 1.208-.943 1.208-.943l.094-1.508-1.302-.096c-.277 1.32-1.393.19-.835-.093.558-.284 1.114-.85 1.114-.85v-.943l.558-.188.092-.943h1.395l1.208-.566.28-.472 1.299-.093 1.858-1.699-.184-.754c-1.116 0 0-.848 0-.848l.183-1.412h.001z"/><path d="M91.038 95.56l-1.673-.188.094.66h.464c.743 1.32.093 4.527.093 4.527s-1.114.093-1.3-.471c-.185-.566-.651 1.226-.28 1.509.371.281 1.673 0 1.766 1.038.092 1.036.836-.661.836-.661V95.56z"/><path d="M91.596 105.273l-.653-.28.092-1.413.56-.098.093-.662-1.397.947-.929-.565v2.262l1.49 1.978.555-1.32zM91.78 109.518v-.942l-.649.093-.096.756zM90.943 114.047v-.662l-.788.093v.662zM92.039 111.145a.395.395 0 00.393-.398c0-.222-.175-.401-.393-.401a.397.397 0 00-.394.4c0 .221.176.4.394.4z"/><circle cx="92.686" cy="112.727" r="1"/><circle cx="92.708" cy="101.953" r="1"/><path d="M122.633 90.562l-.745.19-1.673 1.605-.092.751-.464.663-.556 1.413-1.953.093-.373 1.698.276 1.414 1.673.662.188-.942.557-.285.096-.942.368-.662.56-.658.184-.756.929-.564 1.117-.191.464-.565.188-1.129.066-.849.398-.569 1.113-.47v-1.792h-.557l-.092-.662-1.024-.094-.184.472h-.464l-.097.755h.56l.093.565-.373.377zM126.904 94.431v-1.32l-.187-1.226-1.393-.66-1.021.943-.187 1.32v.849l-.93.19-.186 2.545-.743.284.093.943-1.021.282-1.022.284-.186 1.225-.743.472-.374 1.132-.463 2.734s.837 1.604 1.3.849c.466-.754 1.209-.849 1.209-.849l.279-.66 2.508.094c.187-1.038 1.394-.66 1.394-.188 0 .471.93.093.93.093l.65-1.037h1.021l.093-1.13.466-.284v-1.698c1.487-.471 1.3-1.886 1.3-1.886l.374-.47-.187-.66c-.745-.284-.374-.945.092-.756.466.188-.65-.85-.65-.85-.557.473-1.021-.565-1.021-.565h-1.396zM128.39 105.84c-.092 1.132-1.487 1.51-1.487 1.51l-1.021-.283-.557-.472-.094-1.32.836-.094.186.566 2.138.094zM133.41 99.809c.201.822.185-1.322.556-1.226.372.093.094-1.32.094-1.32l-1.673 1.224c.836.096.929.945 1.023 1.322zM138.335 94.901c.371.85.28 2.076 1.671 3.019.471.318-.278.943-.744.66-.464-.283-1.763-2.359-1.763-2.359v-1.226c.278-.754.675-.46.836-.094zM138.985 123.096l-.648.476.276.28.276.471.652-1.036zM136.01 122.063v1.134M149.448 120.696l.744-.47-.298-.476-.74.466zM176.341 140.359l.838.376.092 1.603c1.115 1.132 4.74.189 4.74-.094 0-.284-.188-3.49-.188-3.49l-.465-.471-.092-2.36c.371-1.225-1.766-3.018-1.952-2.638-.186.376-1.394.092-1.394.47 0 .376-.742 2.263-.37 2.924.37.66-.28.66-.372 1.32-.093.66-1.023 1.793-.837 2.36zM174.295 136.585c-.176.715-.834 1.132-1.206.848-.374-.283.462.471.65.85.185.376.742.376.929 0 .184-.38.092-1.226.28-1.603.184-.378-.559-.472-.653-.095zM169.974 119.284h1v1.793h-1zM179.595 101.128c-.406-.55 1.858-1.509 2.23-.377.37 1.13 0 .943-.372.85-.373-.096-1.3.281-1.858-.473zM181.593 88.495l-.097.555 1.02.187.101-.556zM179.267 89.313l-.276.155-.692.391-.604-.382-.294.476.745.47.14.09.14-.08.56-.316.07.173.518-.208-.189-.472zM182.474 67.175h-1.395s.465.188-.835-1.038c-1.303-1.226-2.138.283-2.138.283l-1.486.188v1.51l-.745.282.094.944 1.022-.094s0 1.131.279.66c.28-.472 2.603.093 2.416 1.226-.076.465 2.324 1.696 2.045 3.205 1.208.19.93 1.416.93 1.416l1.578.188.466-.943.464.095v-.566l-1.024-.283-.184-3.019-.65-.471.185-.755-.743-.283.372-1.226-.652-1.32zM186.56 76.795l-.743-.093-1.675.282-.927 1.792s.464.283.835.943c.37.661.557 4.527-.558 5.188-1.114.66.094.281.094.281l-.187 2.076c.28.943.743.472 1.022 0 .281-.47.56-.565.931-1.037.372-.472.929-1.32 1.022-1.981.092-.66.557-1.697.278-1.98-.278-.283.28-1.603.28-1.603s.371-.755 0-1.51c-.372-.754.092-1.603.371-1.98l-.743-.378zM187.684 80.643l.125-.992.992.125-.125.992zM187.65 83.246l-.895-.445.444-.895.896.444zM186.84 75.76l-.374-.848s0-.754.186-1.133c.187-.376-.371-.753-.65-.848-.278-.094-.184-.848-.278-1.226-.093-.377-.742-.66-.742-.66s-.188-1.414-.188-1.697c0-.283-.836-.66-.557-.943.28-.283.466-.66.745-.85.279-.188-.28-1.508.184-1.226.465.284.465.755.652 1.132.185.377-.094 1.698.371 1.981.464.283-.094 1.225.65 1.225.743 0 .28 1.793.28 1.793s-.187 1.32.276 1.415c.466.094.187 2.357.187 2.357l-.743-.471zM180.802 60.478c.278.377.836.66.836 1.038s-.186.66.373.754c.556.094.929-.095 1.114.377.186.471.186 1.226.094 1.603-.094.378.092.943.556.943.465 0 .558.095.558.378 0 .282.558-1.038.558-1.038-.466-.377-.838-1.226-.838-1.226s-.463-1.32-.463-1.509c0-.188-.65-.378-.929-.472-.28-.094-.745-.942-.745-.942l-1.114.094zM181.73 59.634c-.28-.378-.558-.661-.93-.849-.37-.189-.65-.377-1.022-.377a.61.61 0 01-.558-.849c.187-.472-.28-.66-.28-1.038 0-.377.28-.377.745-.094.465.283.371.377.745.85.37.47.556.942.927.847.373-.094.652.849 1.023.566.371-.282.28.66.28.66l-.93.284zM170.858 70.288c.512.521-2.787.377-2.787 0s.279-1.696 1.114-1.415c.836.284.928-1.697.928-1.697s-.742.094-.092-.283 0-.943-.28-1.226c-.277-.283-.556-.754-.556-.754h1.302c.558-.378.742-2.17.742-2.17 1.114.378 1.672-.377 1.672-.377s.189.566.56 1.038c.371.47-.931.66-.466.943.466.283.65 1.131.466 1.414-.187.283-1.21.094-1.21-.283s-.372.472 0 .944c.37.471-.465 1.13-.651 1.13s-1.392.19-.371.755c1.021.566 2.138.284 2.138.284s.836-.095 1.115.377-.093.566-.557.566c-.464 0-2.696-.19-2.696-.19s-.65.661-.371.944zM164.91 71.138c.466-.094 1.579-.19 1.766.094.187.282-.65.66-.65.66l-1.116.189c-.372-.472-.464-.849 0-.943zM176.9 63.217c.743-.377 2.322-.377 2.23-.943-.092-.566.929-.754.929-.754l.279 1.13.836.567.093 1.037s.279-.188-.742.095c-1.024.283-.372.753-.372.753l-2.23.095-.28-.943-.743-1.037zM173.272 58.125c.565 0-.184 2.169 1.3 1.98 1.488-.19.095.66 1.21.754 1.115.095.836-.849 1.207-1.508.373-.66.187-1.038-.464-1.226-.652-.189-.652-.189-.836-.944-.185-.754-.93-.944-.93-.944l-.279-1.13-1.208.753-1.207 1.604c0 1.227.65.66 1.207.66zM175.73 66.096l.445-.896.895.444-.444.896z"/><path d="M174.759 65.196h1v1h-1zM175.228 52.63l.11.995-.994.11-.11-.995zM173.647 61.423h1v1h-1zM172.184 61.411l-.097-.995.995-.097.097.996zM164.518 70.48l-.92-.391.39-.92.921.391zM161.601 68.765l-.097-.995.995-.097.097.995zM145.476 68.592l-2.041.093.026.564 2.04-.093zM142.066 69.41l-.213-.978.976-.213.214.977z"/><path d="M141.676 69.994l-.313-.95.95-.313.313.95zM146.323 68.405l-.092.66 1.02.094s.464.378.464.66c0 .283.652.566 1.024.566.371 0 1.393-.755 1.393-.755s.465-1.32.094-1.226c-.373.093-1.116.66-1.208.093-.094-.565-1.208-.283-1.208-.283l-1.487.19zM150.968 67.365c0 .282-.184.66.372.754.56.094 1.582-.376 1.674.189.094.565.094.944.836 1.227.742.282 1.209.377 1.766.377.556 0 1.766-.19 1.766-.19s1.315.206 1.579.473c1.022 1.037 1.672 1.32 1.95.848.28-.472-.092-1.508-.184-1.886-.094-.378-1.395-2.17-1.86-1.792-.464.378-.557 0-1.393.282-.837.283-2.603.096-2.695-.282-.092-.378-1.393-.565-1.393-.943s-.929-.849-.837-.283c.093.565-.65.848-.838.66-.185-.188-.743.566-.743.566zM172.344 55.29l.652-2.073c-.928-.19-.744-1.226-.744-1.226-.092-.85-1.393-1.792-1.858-1.509-.464.282-.28-1.981-.28-1.981s.838-.565 1.21-.282c.371.282-3.16-4.716-3.904-4.244-.742.471-2.414-.472-2.322-1.321.093-.848-3.345-3.678-3.345-3.678s-1.115-.753-1.3-.188c-.187.566-.558.943 0 1.225.556.284.463-.47 1.113.189.65.66 1.86 1.51 1.395 2.075-.465.567-1.023.755-1.023.755l.651.755h1.022l.186 1.602s1.114.566 1.394 1.226c.279.66.279 1.038 0 1.416-.28.376-.835 1.036-.743 1.696.093.66.837.943.837.943l.742.095.558.283v1.227c.743-.19 1.95.847 1.858 1.508-.092.66.185.283 1.114.943.93.66.652.755 1.302 1.227.65.47 1.209.187 1.486-.663z"/><path d="M157.011 42.467c-.092-.378-.28-1.699.28-1.605.556.096.185 0 .836.284.65.284.742-.471.742-.471h1.023l1.3 1.036-.186.85-.929.093c-.464-.753-1.393-.47-1.208.19.187.66-.463 1.886-.834 1.98-.372.094-1.582.094-1.488-.471.093-.566.464-1.886.464-1.886zM156.268 39.918v-.754s-.095-.754-.558-.754c-.464 0-1.3-.565-1.116-.943.187-.378-1.579-.755-1.579-.755s-1.579-1.509-1.022-1.32c.558.189.28-.66.28-.66s-1.116.188-1.395.094c-.28-.094-.187-.943-.187-.943s-1.113-.283-1.113 0 .371.283.556.848c.187.566.094 1.51.931 1.698.837.189 1.02.376 1.115.754.093.378 1.115.472 1.115.472l.744.377 2.229 1.886zM146.233 30.301l-.276-.756-.744-.186v.849zM145.954 26.34c-.971-.737 1.3.566 1.3.566.743 0 1.208.566 1.208.85 0 .282 1.022.188 1.022.188l.095-.66-.745-.944-.65-.47s-1.022-.095-1.022-.378c0-.282-.836 1.132-1.208.848zM163.048 26.905c-.271.825-.371 1.98-.836 1.98-.464 0-.28 1.228-.28 1.228s1.21 0 1.582.093c.37.093.37 1.037.37 1.037 1.396-.094 1.954 1.792 1.767 2.264-.187.47.557.47.557.47s0 1.51-.187 1.887c-.184.377 1.21.66 1.58 1.226.372.566-.186 2.452-.464 2.546-.279.095.742.377.65.849-.094.472.28 0 .372.755.092.754.279 2.357.279 2.357l1.3.095c.187-1.226 2.582-1.273 2.974-1.132 1.58.566 2.79 3.018 2.79 3.583 0 .566-1.024.661-1.024.661l.187 2.734c1.578.472 2.88 2.736 2.694 3.113-.186.377 1.114.284 1.114.284.187-1.7 1.766-1.133 1.858-.567.095.567.372 1.792.372 1.792l.465.848.65.66 1.022-.094.28.567 1.207.189s1.024 1.13 1.116 1.414c.094.282 1.487.189 1.858.282.371.095.93.378 1.022.85.094.471.652 1.226.652 1.226s1.114.283 1.208.66c.092.376.557 1.225.557 1.225l.928.755.093.85 1.022.094.28 1.13 1.67-.093.932-.66c1.207-.66 2.044-1.51 2.137-1.887.092-.377.278-1.79 1.208-1.508.929.283.28-2.075.28-2.075s-1.302-.943-1.21-1.416c.094-.47-1.3-1.413-1.207-1.791.092-.378-1.208-1.131-1.116-1.509.092-.377-.65-1.415-.65-1.415l-1.395-1.32-.186-.85-1.114-.093-2.23-2.735.093-.755-.65-.094v-1.037l-.65-.377-1.024-.095-2.043-2.262-.186-1.038H184.7l.185-1.981c.651-.85.279-2.452.279-2.452s-1.302.66-1.95.377c-.652-.282.277-.944.277-.944v-.753l-.557-.566s-1.58.19-1.673-.094c-.093-.283-.371-1.509-.371-1.509l-.093-1.604-.65-.281-.094-.567-1.021.094v-1.132l-.559-.188-.557-.283-.092-1.132-2.045-.094-.65-.943-.743-1.132-2.323-.188-.558-.565-.929-.19-.65-.283-.28.473-1.765.093-.092.566c-.93.472-4.646.094-4.74.377zM172.808 24.456c-.147-.744 1.86-1.415 2.324-.85.466.567 1.766.663 1.952 3.492.066 1.013-1.673-1.038-1.673-1.038l-1.395-.471c-.742-.19-1.115-.66-1.207-1.133zM145.554 25.606l-.915-.404.403-.915.915.404zM140.75 16.345l-1.21-1.226V14.08l-.372-.378-.371-1.32-1.208-.376-1.208.47-1.301.85-1.393.19-.745.847 2.974.282.557.944 2.14.189 1.392 1.414c1.21.378 1.488-.188.745-.848zM140.565 11.722c-.204-.829-1.394 1.037-.184 1.414 1.208.379 2.414 0 2.414 0l.28-.566 4.644.095c.374-.378.558-.943.558-.943s1.116-.378 1.58-.19c.465.19.094-1.32-.372-1.13-.464.188-1.393.093-1.393.093h-1.673c-.092-.66-1.58-.377-1.672 0-.094.377-.65.472-.65.472l-2.137.189c-.187.566-1.3.943-1.395.566zM131.364 27.637c1.43.453 1.951.118 2.046-.26.092-.377.184-.472.742-.565.557-.095-.093-1.226-.65-1.132-.558.094-1.116-.189-1.208-.66-.095-.471-1.023-1.698-1.116-.754-.093.943-.65.943-.558 1.603.094.659.373 1.649.744 1.768zM120.682 28.699c-.067-.334 1.858-.377 2.138-.095.279.283.092.755.928.755.836 0 .465.566.372.849-.093.283-1.021.188-1.116-.093-.092-.284-1.487-.38-1.487-.38s-.743-.566-.835-1.036zM152.286 8.483l-.736.596-.473-.48-.394.399.648.66.18.18.192-.158.933-.755zM147.162 6.766l-.596-.376-.293.48.744.47.145.096.149-.096 1.024-.66-.297-.478zM144.166 26.168l-.136-.014-.928-.098-.057.565.797.08.578.92.469-.302-.648-1.036zM113.432 52.462l.095 1.038h1.392c.558 0-.464-.66-.464-.66s-1.115.094-1.023-.378zM115.2 52.494l.638-.77.77.637-.637.77zM98.27 34.85l.708-.707.706.708-.708.706zM125.265 156.231l-.929-.471-.25.507.583.293-.193.196.399.4.464-.471.272-.276zM118.07 149.44l-.356-.436-.56.471-.276.236.293.213.653.471.324-.457-.36-.263zM187.17 131.549c-.124-.48-.666-.678-.727-.698l-.177.538v-.003c.044.016.108.05.173.092l.113.49a1.793 1.793 0 01-.123.163l.41.383c.298-.332.408-.654.33-.965zM188.026 129.768l-.907-.067.07-.849.907.142zM209.563 122.415c.397-.251.905-.709.836.354-.07 1.06-.488.708-.836 1.06-.349.355-.558-1.06 0-1.414zM214.292 118.412c-.008-.018-.013-.084-.017-.131a1.542 1.542 0 00-.143-.59l-.498.253c.062.126.074.26.085.387.014.165.032.354.19.474.1.076.226.098.377.069l-.107-.548c.043.007.1.046.113.086zM213.05 118.876c.142.574.349 1.139.358 1.162l.523-.199a11.042 11.042 0 01-.34-1.101l-.54.138zM211.022 121.101l-.556-.055c-.043.445.063.994.502 1.084l.11-.555.01.003c-.045-.04-.087-.267-.066-.477zM208.579 109.849a.51.51 0 00-.305-.397c-.413-.181-1.108.119-1.449.35l.309.471c.352-.24.816-.354.92-.301-.01-.004-.023-.02-.026-.031l.55-.092zM182.842 79.719c-.37.377-1.207.566-1.207.566l-.28 1.037-.463.377s.092.283 0 .943c-.093.66-.93 1.038-.93 1.038l-.371.471s-2.24.122-2.51 0c-.836-.377-.277-1.509.28-1.414.557.094-.094-1.604-.094-1.604l.745-.094s.092-1.698.37-1.698c.28 0-.091-.566-.465-.849-.371-.281-.835-1.225-1.208-1.13-.372.093-1.858 0-1.858 0l-.28.565-1.022.188s.088.73-.09.944c-.56.66-2.696 2.074-1.768-.283l.278-.565v-.85l-1.67-.093s-.837-.283-.837-.66c0-.378-.094-.849-.094-.849l-1.952-2.169-2.322-.282-.187-.473-1.392-.188c-1.674-.848-3.16-.095-2.881 1.32.278 1.416.742 1.981-.186 1.981-.93 0-1.115-.754-1.115-.754s-.743-.284-.743.093c0 .378-.28 1.132 0 1.51.278.376-.373.942-.652.66-.277-.284-1.02-1.131-.835-1.414.186-.283-1.302-2.076.186-2.358 1.487-.284-.093-1.133.465-1.32l.743-.378h.742l.465-.378-1.207-.187-.743-.095-1.395-.094c-1.393.943-1.67 2.075-1.67 2.075-.746 1.414-2.51-.566-1.859-1.32.65-.755-2.045-.095-2.51.282-.466.377-1.86.189-1.86.189-.277.85-1.578-.094-1.207-.66.372-.566.372-.943.372-.943l-.464-.095-.557 1.038c-1.301 0-1.674.754-1.395 1.226.278.47-.372-.095-.558.565-.185.66.094.66.652.943.558.284-.28.284.092.754.372.473 1.487 0 .837.661-.65.66-1.953.378-1.953.378-.092.847-1.858.66-2.042.377-.187-.283-1.58-1.981-1.58-1.981l-1.768-.094c-.184-1.32.838-.66 1.209-1.698.374-1.038.56-2.734.56-2.734s-1.49-.094-1.582.377c-.092.472-1.022.755-1.022.755s-.744.282-.465.66c.28.377-.558.564-.558.564s.145.61-.092.85c-.742.755-2.602.093-2.88-.189l-1.116-.472-1.115-.754-1.3.565-.372.378h-1.395l-.092 1.13 2.51.283.186 2.334-1.024-.352h-.65l-.278-.567-.558-.094v2.074l.558.473.465.47.93.094.186 1.132 2.322.095.279.47 1.394.096 2.695 2.733-.186.85-.466.283c.187.66-1.206.283-1.206.283v.565l.648.094.652.377.929-1.603c1.022-.66 1.485.284 1.58.85.092.565-.466.47-.466.47v1.322l.558.187c.93 1.132-.371 1.793-.371 1.793l-.28.943c-.279.849-1.3.66-1.3.66l-.371.566-1.117.283 2.207.282c.21-.754.766-.943 1.045-.565.279.377.279 1.037.279 1.037l.56.095-.095 1.037.558.189v3.017l.65.755c1.116-.47 1.116.283.557.66-.557.376-.186 2.075-.186 2.075l-.464.47v.756l-.558.377v1.037c-.93-.472-2.045-.284-2.324 0-.835-.567-2.6-.377-2.6.095.556.754-.65.943-.65.943l-.652.754c.465.944-.463 1.037-.463 1.037v1.793l-1.116 1.037.094 2.452c0 .66 1.393.754 1.67.377.28-.377 1.396.755 1.396.755h.835l.187-1.698-.559-.283v-2.736l.93-1.037c1.115-.377.744 2.453.744 2.736.092 1.037.556.943 1.022.754.929-.377.184 1.038-.558.943-.743-.094-.28.943-.28.943l.466.19-.837.66-.741.849-.932-.284-1.114-.093-.371-.662-.652-.094-.093 1.32-.463.566-1.116 1.133c1.488 0-.187 1.035-.558 1.035.836.283-.092 1.133-2.23.473v.66l-.744.094.652.754.743.094-.28 1.603c0 1.226-3.065.376-3.345.095l-.092 1.698-.558.092.092 1.133-.092 1.604 1.022-.189v.66l2.51.095 3.624-3.868 2.137-.47c.185-.945 1.113.189 1.113.189.93-.097 1.116.565 1.116.565l1.209.189c1.02.283.404.382.464.755.092.565.557.376.557.376l.187-1.226.558.095-.558-.66-1.024-.473-1.114-.471c-.744-1.037.186-.848.93-.753h1.208s1.394 1.885 1.394 2.357c0 .472.65.566.65.566l.836-.094.279.659h.836l.28.565h1.672l.093-.848-1.581-.282-.092-.944-1.114-.283c-.374-1.602.277-2.075.742-1.319l.557.092-.186-1.414.65-.19-.185-1.98-.557-.187v-.661l2.322.096c-.185-1.228.094-1.793.094-1.793h.65l.092.473 2.843.268 2.01-2.306c-.1-.176.202-.284-.018-.51-.28-.283-.652 0-1.119-.283-.463-.28 0-1.885-.092-2.262s1.582-.945 1.303-.095c-.28.85 0 1.227 0 1.227 1.207-1.132 2.23.093 2.137.377-.095.282.65.565 1.113.282.466-.282 1.024.85.837 1.414-.187.566-1.857.473-1.95-.094-.095-.566-.374-.377-.558-.093-.187.283-1.021.47-1.487.187a.444.444 0 01-.165-.15l-2.01 2.306.13.013c1.114.66.558 1.51.187 1.698-.373.189-1.024.189-1.024.189l-.184.378-2.416.187-.187.944c-1.208-.19-1.672 1.131-1.393 1.79.28.66 0 1.226 0 1.226l1.022.473 1.3-.376c.187-.945 1.022-1.134 1.766-1.698.742-.566 1.952 1.035 1.579 1.79-.372.754-.372 1.038-.372 1.038l.092.849-.928.376-.743.378-.094.472h-2.508l-.464.47-1.209.097-.373.565-.835.095s-1.395.66-.836 1.415c.557.755-2.323.66-2.975-.378-.186.942-1.208.094-1.208.094l-1.021-.284-.093-1.412c-.186-.945-1.952-.945-1.858-.284.093.66-3.347.284-3.347.284l-1.114.54-1.023.591-.092.47-1.674.19-.742.378-.279-.567h-.743l-.744 1.039c-1.95.094-3.809 1.226-3.624 1.697.187.471-.742.945-.742.945l-.837.28-.556.85-1.116.377-.187 1.981-.556.376v.85l-.652.187v.473l-.928.094.556 1.415.746.378c1.3.187.742 1.792.742 1.792l.743.093.373 1.037.742 1.509c.28 1.133 1.116.85 1.487.756.372-.093.743 1.13.743 1.13l3.716.095s-.185.378.466.567c.65.187 4.924.377 5.111.094-.187-.85 2.322-1.038 3.345-.283 1.02.753 2.416.283 2.416.283l1.393 1.696.931 2.076 1.579.47 1.114.284.373 1.603.835.095.28 1.038c1.022.754-.28 2.358-.28 2.358v2.073l.744.378-.094.756 1.21 1.224 1.393.096 3.532 3.772 2.787.848.463 1.509.745-.095.557-.47 2.23-.095 1.116-1.038 1.208-.187 10.314-8.772-.93-.566v-2.074c1.672-1.226 1.765-3.396.186-3.584-1.199-.144-.65-1.415.466-1.604l.65-.281v-.85l2.136-1.98v-1.509l-4.645-3.868c-2.045-.753 0-5.28 1.393-5.186 1.395.093-.092-6.979-.092-6.979l-.745-.376.187-2.265h-1.021l-1.674 2.17-.464 1.508c-.186 1.983-5.947 1.604-6.227 1.32-.279-.283-2.23-1.13-2.23-1.13s-1.486-1.227-1.765-.849c-.28.378-1.579-.472-1.579-.189s-1.208-.659-1.208-.659l-1.858-.66 1.395-.284-.28-1.132 2.414 1.226c.28.376 1.488.284 1.488.284l.371.472s.745-.096 1.21.47c.464.567 2.88.095 2.88.095l.65.565 1.022.378 2.881.095.093-1.791.558-.566-.094-1.133.65-.565v-.942l.559-.19.092-2.073.464-.095v-4.527l-1.394-1.321c-.092.472-1.579.472-1.579.472s-.371.66-.65.66c-.278 0 .372.847.185 1.414-.185.565-.929.565-.929.565l-1.395.378-.371.472h-1.487l-.185-1.226 1.671-.472.93-.47.465-.945c.092-.942 1.208-.848 1.208-.848s2.137-1.792 2.23-2.64c.094-.849.837-3.207 2.137-3.207h2.417c.928-.378.65-1.603.65-1.603l1.208-.188.186.66s1.673.189 1.858-.095c.187-.281.558-.943 1.024-.66.464.283 1.95-.66 1.95-.66.093-.66 2.416-.377 2.416-.377l.28-.849s-1.58-2.169-1.858-2.169c-.28 0-1.766-1.32-1.953-.849-1.485-.377-1.393-2.452-1.393-2.452l-.558-1.32c0-.755-1.392-2.358-1.673-2.169-1.395-1.037-.371-2.263 0-2.357.372-.094 1.302-1.415 1.302-1.415l.464-1.32 1.58-.47.186-1.227-.835-.095s.928-1.698 1.393-1.698c.466 0 3.532 0 3.809-.19.279-.187.836-1.696.836-1.979 0-.283.745-.377 1.022-.472.28-.094.93-.848 1.116-1.226.186-.38-.463-2.738-.836-2.36z"/><path d="M131.364 113.717c.14-.14.28.425.558.354.277-.07.418.496.14.496-.28 0-.28.354-.28.495 0 .142 0 .494-.21.707-.208.212-.418.07-.697-.07-.278-.142-.416-.142-.766-.142-.348 0-.07.566-.07.566s-1.464-.07-1.185-.283c.28-.211.558-.284.35-.425-.21-.142 0-.282 0-.565 0-.284.697-.142.486-.354-.207-.213.005-1.033.348-.567l.21-.496c-.21-.211-.069-.283-.487-.422-.418-.142-.07-.991-.07-.991l.07-.566c.14-.706 1.532-.778 1.603-.142.069.637 0 1.062 0 1.062l.419.14s-.07.427-.419.427c-.35 0 0 .21-.21.423l.21.353zM126.764 114.427c.21-.425.697-2.264 1.255-1.698.556.566.905 0 .905 0s.28.284.14.85c-.14.565-.28 1.131-.63 1.202-.347.07-.626.283-1.042.354-.418.071-.628-.708-.628-.708z"/></g><path d="M395.843 320.828c0 38.722-31.39 70.112-70.112 70.112-38.721 0-70.111-31.39-70.111-70.112 0-38.721 31.39-70.111 70.111-70.111 38.722 0 70.112 31.39 70.112 70.111zM140.777 71.843c0 38.721-31.39 70.111-70.111 70.111-38.722 0-70.112-31.39-70.112-70.111 0-38.722 31.39-70.111 70.112-70.111 38.721 0 70.11 31.39 70.11 70.111zM140.777 320.828c0 38.722-31.39 70.112-70.111 70.112-38.722 0-70.112-31.39-70.112-70.112 0-38.721 31.39-70.111 70.112-70.111 38.721 0 70.11 31.39 70.11 70.111zM140.777 566.391c0 38.722-31.39 70.112-70.111 70.112-38.722 0-70.112-31.39-70.112-70.112 0-38.721 31.39-70.111 70.112-70.111 38.721 0 70.11 31.39 70.11 70.111zM395.843 566.391c0 38.722-31.39 70.112-70.112 70.112-38.721 0-70.111-31.39-70.111-70.112 0-38.721 31.39-70.111 70.111-70.111 38.722 0 70.112 31.39 70.112 70.111zM650.908 566.391c0 38.722-31.39 70.112-70.111 70.112-38.722 0-70.112-31.39-70.112-70.112 0-38.721 31.39-70.111 70.112-70.111 38.721 0 70.111 31.39 70.111 70.111zM650.908 71.843c0 38.721-31.39 70.111-70.111 70.111-38.722 0-70.112-31.39-70.112-70.111 0-38.722 31.39-70.111 70.112-70.111 38.721 0 70.111 31.39 70.111 70.111zM395.843 71.843c0 38.721-31.39 70.111-70.112 70.111-38.721 0-70.111-31.39-70.111-70.111 0-38.722 31.39-70.111 70.111-70.111 38.722 0 70.112 31.39 70.112 70.111z"/></g></svg>